<?xml version="1.0" encoding="UTF-8"?>
<svg width="133.45mm" height="42.61mm" version="1.1" viewBox="0 0 133.45 42.61" xmlns="http://www.w3.org/2000/svg" xmlns:cc="http://creativecommons.org/ns#" xmlns:dc="http://purl.org/dc/elements/1.1/" xmlns:rdf="http://www.w3.org/1999/02/22-rdf-syntax-ns#">
<title>efaro-logo</title>
<g transform="translate(-23.916 -80.846)" fill="#fff">
<g transform="matrix(.35278 0 0 -.35278 1.2462 268.52)" stroke="#fff" stroke-width="1.0006">
<path transform="translate(206.04 437.88)" d="m0 0c5.949 0 9.432 1.668 9.432 8.488v4.788c0 5.441-2.104 8.706-7.618 8.706h-7.183v-21.982zm1.886 25.029c7.763 0 10.883-4.28 10.883-11.463v-4.425c0-5.949-2.321-9.359-7.328-10.52 5.224-1.161 7.328-4.86 7.328-10.374v-7.908c0-2.105-0.016-6.094-0.016-6.094h-3.293s-0.028 3.337-0.028 6.094v7.979c0 6.748-3.701 8.635-9.504 8.635h-5.297v-22.708h-3.337v50.784z"/>
<path transform="translate(206.04 437.88)" d="m0 0c5.949 0 9.432 1.668 9.432 8.488v4.788c0 5.441-2.104 8.706-7.618 8.706h-7.183v-21.982zm1.886 25.029c7.763 0 10.883-4.28 10.883-11.463v-4.425c0-5.949-2.321-9.359-7.328-10.52 5.224-1.161 7.328-4.86 7.328-10.374v-7.908c0-2.105-0.016-6.094-0.016-6.094h-3.293s-0.028 3.337-0.028 6.094v7.979c0 6.748-3.701 8.635-9.504 8.635h-5.297v-22.708h-3.337v50.784z" stroke-miterlimit="10"/>
<path transform="translate(228.45 424.32)" d="m0 0c0-5.513 2.176-9.577 7.763-9.577 5.659 0 7.907 4.064 7.907 9.577v26.408c0 5.514-2.248 9.577-7.907 9.577-5.587 0-7.763-4.063-7.763-9.577zm-3.337 26.19c0 7.4 3.409 12.841 11.1 12.841 7.835 0 11.245-5.441 11.245-12.841v-25.972c0-7.4-3.41-12.841-11.245-12.841-7.691 0-11.1 5.441-11.1 12.841z"/>
<path transform="translate(228.45 424.32)" d="m0 0c0-5.513 2.176-9.577 7.763-9.577 5.659 0 7.907 4.064 7.907 9.577v26.408c0 5.514-2.248 9.577-7.907 9.577-5.587 0-7.763-4.063-7.763-9.577zm-3.337 26.19c0 7.4 3.409 12.841 11.1 12.841 7.835 0 11.245-5.441 11.245-12.841v-25.972c0-7.4-3.41-12.841-11.245-12.841-7.691 0-11.1 5.441-11.1 12.841z" stroke-miterlimit="10"/>
<path transform="translate(267.29 415.18)" d="m0 0c5.659 0 7.98 3.845 7.98 9.431v25.828c0 5.586-2.393 9.431-7.98 9.431h-7.763v-44.69zm0.073 47.737c7.835 0 11.245-5.151 11.245-12.623v-25.537c0-7.473-3.41-12.624-11.245-12.624h-11.173v50.784z"/>
<path transform="translate(267.29 415.18)" d="m0 0c5.659 0 7.98 3.845 7.98 9.431v25.828c0 5.586-2.393 9.431-7.98 9.431h-7.763v-44.69zm0.073 47.737c7.835 0 11.245-5.151 11.245-12.623v-25.537c0-7.473-3.41-12.624-11.245-12.624h-11.173v50.784z" stroke-miterlimit="10"/>
<path transform="translate(296.04 437.88)" d="m0 0c5.949 0 9.432 1.668 9.432 8.488v4.788c0 5.441-2.104 8.706-7.618 8.706h-7.183v-21.982zm1.886 25.029c7.763 0 10.883-4.28 10.883-11.463v-4.425c0-5.949-2.322-9.359-7.328-10.52 5.224-1.161 7.328-4.86 7.328-10.374v-7.908c0-2.105 0.037-6.094 0.037-6.094h-3.331s-0.043 3.337-0.043 6.094v7.979c0 6.748-3.701 8.635-9.504 8.635h-5.297v-22.708h-3.337v50.784z"/>
<path transform="translate(296.04 437.88)" d="m0 0c5.949 0 9.432 1.668 9.432 8.488v4.788c0 5.441-2.104 8.706-7.618 8.706h-7.183v-21.982zm1.886 25.029c7.763 0 10.883-4.28 10.883-11.463v-4.425c0-5.949-2.322-9.359-7.328-10.52 5.224-1.161 7.328-4.86 7.328-10.374v-7.908c0-2.105 0.037-6.094 0.037-6.094h-3.331s-0.043 3.337-0.043 6.094v7.979c0 6.748-3.701 8.635-9.504 8.635h-5.297v-22.708h-3.337v50.784z" stroke-miterlimit="10"/>
<path transform="translate(0 -3.189e-5)" d="m321.89 412.13h-3.337v50.784h3.337z" stroke-miterlimit="10"/>
<path transform="translate(352.6 450.51)" d="m0 0v-3.772h-3.192v3.99c0 5.442-2.104 9.577-7.69 9.577s-7.69-4.135-7.69-9.577v-26.408c0-5.441 2.104-9.504 7.69-9.504s7.69 4.063 7.69 9.504v10.955h-6.747v3.047h9.939v-13.784c0-7.328-3.192-12.841-10.955-12.841s-10.955 5.513-10.955 12.841v25.972c0 7.328 3.192 12.841 10.955 12.841s10.955-5.513 10.955-12.841"/>
<path transform="translate(352.6 450.51)" d="m0 0v-3.772h-3.192v3.99c0 5.442-2.104 9.577-7.69 9.577s-7.69-4.135-7.69-9.577v-26.408c0-5.441 2.104-9.504 7.69-9.504s7.69 4.063 7.69 9.504v10.955h-6.747v3.047h9.939v-13.784c0-7.328-3.192-12.841-10.955-12.841s-10.955 5.513-10.955 12.841v25.972c0 7.328 3.192 12.841 10.955 12.841s10.955-5.513 10.955-12.841z" stroke-miterlimit="10"/>
<path transform="translate(364.59 424.39)" d="m0 0c0-5.441 2.032-9.649 7.618-9.649s7.617 4.208 7.617 9.649v38.523h3.12v-38.377c0-7.256-3.047-12.842-10.81-12.842s-10.882 5.586-10.882 12.842v38.377h3.337z"/>
<path transform="translate(364.59 424.39)" d="m0 0c0-5.441 2.032-9.649 7.618-9.649s7.617 4.208 7.617 9.649v38.523h3.12v-38.377c0-7.256-3.047-12.842-10.81-12.842s-10.882 5.586-10.882 12.842v38.377h3.337z" stroke-miterlimit="10"/>
<path transform="translate(409.08 439.41)" d="m0 0v-3.047h-13.857v-21.184h16.687v-3.047h-20.024v50.784h20.024v-3.047h-16.687v-20.459z"/>
<path transform="translate(409.08 439.41)" d="m0 0v-3.047h-13.857v-21.184h16.687v-3.047h-20.024v50.784h20.024v-3.047h-16.687v-20.459z" stroke-miterlimit="10"/>
<path transform="translate(441.97 450.65)" d="m0 0v-1.088h-3.192v1.306c0 5.369-2.032 9.431-7.546 9.431-5.513 0-7.544-3.99-7.544-9.358 0-12.334 18.355-12.552 18.355-26.554 0-7.327-3.193-12.695-10.955-12.695-7.763 0-10.955 5.368-10.955 12.695v2.613h3.192v-2.83c0-5.441 2.103-9.359 7.69-9.359s7.69 3.918 7.69 9.359c0 12.188-18.355 12.405-18.355 26.553 0 7.617 3.338 12.551 10.81 12.623 7.69 0 10.81-5.368 10.81-12.696"/>
<path transform="translate(441.97 450.65)" d="m0 0v-1.088h-3.192v1.306c0 5.369-2.032 9.431-7.546 9.431-5.513 0-7.544-3.99-7.544-9.358 0-12.334 18.355-12.552 18.355-26.554 0-7.327-3.193-12.695-10.955-12.695-7.763 0-10.955 5.368-10.955 12.695v2.613h3.192v-2.83c0-5.441 2.103-9.359 7.69-9.359s7.69 3.918 7.69 9.359c0 12.188-18.355 12.405-18.355 26.553 0 7.617 3.338 12.551 10.81 12.623 7.69 0 10.81-5.368 10.81-12.696z" stroke-miterlimit="10"/>
<path transform="translate(215.08 506.27)" d="m0 0v-3.051h-13.149v-23.03h-3.342v50.854h19.324v-3.051h-15.982v-21.722z"/>
<path transform="translate(215.08 506.27)" d="m0 0v-3.051h-13.149v-23.03h-3.342v50.854h19.324v-3.051h-15.982v-21.722z" stroke-miterlimit="10"/>
<path transform="translate(227.43 494.35)" d="m0 0h14.82l-7.483 32.91zm-0.508-2.906-2.543-11.261h-3.052l11.116 50.927h4.867l11.333-50.927h-3.341l-2.543 11.261z"/>
<path transform="translate(227.43 494.35)" d="m0 0h14.82l-7.483 32.91zm-0.508-2.906-2.543-11.261h-3.052l11.116 50.927h4.867l11.333-50.927h-3.341l-2.543 11.261z" stroke-miterlimit="10"/>
<path transform="translate(254.6 531.04)" d="m0 0 10.316-47.003 10.316 47.003h3.124l-11.043-50.853h-4.94l-11.188 50.853z"/>
<path transform="translate(254.6 531.04)" d="m0 0 10.316-47.003 10.316 47.003h3.124l-11.043-50.853h-4.94l-11.188 50.853z" stroke-miterlimit="10"/>
<path transform="translate(300.65 507.5)" d="m0 0v-3.051h-13.876v-21.213h16.709v-3.051h-20.051v50.853h20.051v-3.051h-16.709v-20.487z"/>
<path transform="translate(300.65 507.5)" d="m0 0v-3.051h-13.876v-21.213h16.709v-3.051h-20.051v50.853h20.051v-3.051h-16.709v-20.487z" stroke-miterlimit="10"/>
<path transform="translate(340.1 492.39)" d="m0 0c0-5.521 2.18-9.59 7.773-9.59 5.667 0 7.919 4.069 7.919 9.59v26.444c0 5.521-2.252 9.589-7.919 9.589-5.593 0-7.773-4.068-7.773-9.589zm-3.342 26.226c0 7.41 3.415 12.858 11.115 12.858 7.846 0 11.261-5.448 11.261-12.858v-26.008c0-7.41-3.415-12.859-11.261-12.859-7.7 0-11.115 5.449-11.115 12.859z"/>
<path transform="translate(318.19 505.76)" d="m0 0c5.949 0 9.431 1.668 9.431 8.488v4.788c0 5.441-2.104 8.706-7.617 8.706h-7.183v-21.982zm1.886 25.029c7.763 0 10.883-4.28 10.883-11.463v-4.425c0-5.949-2.322-9.359-7.328-10.519 5.224-1.162 7.328-4.861 7.328-10.375v-7.908c0-2.105-0.016-6.094-0.016-6.094h-3.293s-0.029 3.337-0.029 6.094v7.98c0 6.747-3.7 8.634-9.503 8.634h-5.297v-22.708h-3.337v50.784z"/>
<path transform="translate(340.1 492.39)" d="m0 0c0-5.521 2.18-9.59 7.773-9.59 5.667 0 7.919 4.069 7.919 9.59v26.444c0 5.521-2.252 9.589-7.919 9.589-5.593 0-7.773-4.068-7.773-9.589zm-3.342 26.226c0 7.41 3.415 12.858 11.115 12.858 7.846 0 11.261-5.448 11.261-12.858v-26.008c0-7.41-3.415-12.859-11.261-12.859-7.7 0-11.115 5.449-11.115 12.859z" stroke-miterlimit="10"/>
<path transform="translate(318.19 505.76)" d="m0 0c5.949 0 9.431 1.668 9.431 8.488v4.788c0 5.441-2.104 8.706-7.617 8.706h-7.183v-21.982zm1.886 25.029c7.763 0 10.883-4.28 10.883-11.463v-4.425c0-5.949-2.322-9.359-7.328-10.519 5.224-1.162 7.328-4.861 7.328-10.375v-7.908c0-2.105-0.016-6.094-0.016-6.094h-3.293s-0.029 3.337-0.029 6.094v7.98c0 6.747-3.7 8.634-9.503 8.634h-5.297v-22.708h-3.337v50.784z" stroke-miterlimit="10"/>
</g>
<path transform="matrix(.35278 0 0 -.35278 1.2462 268.52)" d="m73.365 531.11c-5.029 0-9.105-4.077-9.105-9.106v-100.77c0-5.029 4.076-9.106 9.105-9.106h45.415v53.382h5.95v-11.835c1.233 1.762 2.666 3.46 4.298 5.091 5.244 5.244 10.62 7.999 16.131 8.264v-6.479c-3.747-0.177-7.626-2.271-11.636-6.281-5.643-5.598-8.573-12.32-8.793-20.165v-21.977h49.408c5.03 0 9.106 4.077 9.106 9.106v100.77c0 5.029-4.076 9.106-9.106 9.106zm53.717-33.67c5.244 5.246 12.566 7.685 18.077 7.95v-6.091c-5.776-0.531-9.665-2.14-13.674-6.151-5.643-5.597-6.608-13.217-6.829-21.062l-5.876-0.075c0.625 18.615 6.485 23.469 8.302 25.429"/>
</g>
<metadata>
<rdf:RDF>
<cc:Work rdf:about="">
<dc:title>efaro-logo</dc:title>
<dc:date>25/12/2022</dc:date>
<dc:creator>
<cc:Agent>
<dc:title>jvn20c</dc:title>
</cc:Agent>
</dc:creator>
<dc:description>github.com/jvn20c/efaro</dc:description>
</cc:Work>
</rdf:RDF>
</metadata>
</svg>
